<?xml version="1.0" encoding="utf-8"?>
<!-- Generator: Adobe Illustrator 16.0.0, SVG Export Plug-In . SVG Version: 6.00 Build 0)  -->
<!DOCTYPE svg PUBLIC "-//W3C//DTD SVG 1.1//EN" "http://www.w3.org/Graphics/SVG/1.1/DTD/svg11.dtd">
<svg version="1.1" id="_x32_6e08365-e7f3-4f87-b2fd-e29738693ebb"
	 xmlns="http://www.w3.org/2000/svg" xmlns:xlink="http://www.w3.org/1999/xlink" x="0px" y="0px" width="999px" height="797.25px"
	 viewBox="0 0 999 797.25" enable-background="new 0 0 999 797.25" xml:space="preserve">
<path opacity="0.1" fill="#2D71A1" enable-background="new    " d="M321.21,31.27c30.78-27.43,79.11-33,123.09-30.84
	c138.16,6.87,262.87,73.56,370.74,149c39.05,27.31,77.5,56.74,102.85,94.35c51.601,76.57,36.3,182.63-35.46,245.701
	c-24.41,21.46-54,37.909-84.39,52.5c-54,25.93-112.311,46.739-173.62,52.67c-43.73,4.22-88,0.789-131.46-5.11
	C371.5,573.08,252.31,536.63,152.4,474.35c-43.82-27.33-85.13-61.3-103.19-105.52c-18.06-44.22-6.5-100.2,38.29-126.4
	c18.51-10.82,40.64-15.71,62.3-20.3c31.89-6.76,64.29-13.42,93.06-27.15c29.72-14.19,64.92-41.63,59-73
	C295.5,88.26,290.5,58.63,321.21,31.27z"/>
<circle opacity="0.1" fill="#2D71A1" enable-background="new    " cx="174.08" cy="129.4" r="31.5"/>
<circle opacity="0.1" fill="#2D71A1" enable-background="new    " cx="108.09" cy="54.4" r="19.5"/>
<circle opacity="0.1" fill="#FA709A" enable-background="new    " cx="925.57" cy="114.4" r="12"/>
<ellipse opacity="0.1" fill="#FA709A" enable-background="new    " cx="689.92" cy="788.85" rx="84.24" ry="8.4"/>
<polygon fill="#5F5D7E" points="214,487.31 213.63,507.26 210.67,668.97 185.33,728.31 98,729.31 98,496.5 189.14,489.28 "/>
<polygon fill="#5F5D7E" points="214,487.31 213.63,507.26 210.67,668.97 185.33,728.31 192,507.64 191.98,507.5 189.14,489.28 "/>
<polygon opacity="0.1" enable-background="new    " points="189.14,489.28 214,487.31 213.63,507.26 191.98,507.5 98,508.55 
	98,496.5 "/>
<polygon fill="#5F5D7E" points="999,496.5 999,727.97 978.67,727.97 897.33,668.64 897.33,489.97 970,483.14 974.46,485.19 
	978.67,487.13 "/>
<rect x="978.67" y="485.19" opacity="0.1" enable-background="new    " width="20.33" height="242.779"/>
<polygon opacity="0.1" enable-background="new    " points="999,485.19 999,498.5 978.67,498.73 897.33,499.63 897.33,489.97 
	970,483.14 974.46,485.19 978.67,487.13 978.67,485.19 "/>
<polygon fill="#5F5D7E" points="999,477.64 999,496.5 0,507.64 0,483.64 94,464.64 912,458.64 "/>
<polygon opacity="0.1" enable-background="new    " points="999,477.64 999,496.5 0,507.64 0,483.64 "/>
<path fill="#474157" d="M388.32,194.97H692.6c12.604,0,22.82,10.217,22.82,22.82v226.05c0,12.604-10.217,22.82-22.82,22.82H388.32
	c-12.604,0-22.82-10.217-22.82-22.82V217.79C365.5,205.187,375.717,194.97,388.32,194.97z"/>
<g>
	<defs>
		<rect id="XMLID_1_" x="393.66" y="219.48" width="294.12" height="221.63"/>
	</defs>
	<use xlink:href="#XMLID_1_"  overflow="visible" fill="#EDEDF4"/>
	<clipPath id="XMLID_3_">
		<use xlink:href="#XMLID_1_"  overflow="visible"/>
	</clipPath>
	<g transform="matrix(1 0 0 1 -3.051758e-005 0)" clip-path="url(#XMLID_3_)">
		
			<image overflow="visible" width="1347" height="671" xlink:href="../../../Capture.PNG"  transform="matrix(0.3457 0 0 0.3457 363.4063 220.1851)">
		</image>
	</g>
</g>
<circle fill="#E6E8EC" cx="382.18" cy="330.29" r="4.82"/>
<circle fill="#E6E8EC" cx="700.81" cy="330.81" r="7.95"/>
<linearGradient id="SVGID_1_" gradientUnits="userSpaceOnUse" x1="994.709" y1="-353.1499" x2="994.709" y2="163.0166" gradientTransform="matrix(1 0 0 -1 -316.5 440.8799)">
	<stop  offset="0" style="stop-color:#808080;stop-opacity:0.25"/>
	<stop  offset="0.54" style="stop-color:#808080;stop-opacity:0.12"/>
	<stop  offset="1" style="stop-color:#808080;stop-opacity:0.1"/>
</linearGradient>
<path fill="url(#SVGID_1_)" d="M803.88,509.14c-0.2-1.223-0.581-2.409-1.13-3.52c0.76-2.59,1.25-4.18,1.25-4.18s0-0.381-0.12-1
	c-1.232-7.578-7.875-13.08-15.55-12.881c-6,0.11-17.38,0.511-30,1.931c0.72-5.05,1.58-11.09,2.479-17.311l1.65,0.181
	c0.38,0,0.78,0,1.18,0.06h0.53c1.315,0.082,2.616-0.315,3.66-1.12c0.855-0.832,0.874-2.199,0.042-3.054
	c-0.202-0.209-0.444-0.374-0.712-0.486c2.996,0.299,5.94-0.935,7.83-3.279c1.739-2.435,1.739-5.706,0-8.141
	c-2.11-3-6.58-5-6.82-8.53c-0.13-2,1.21-3.8,2.26-5.569c5.201-9.082,3.7-20.519-3.67-27.95c-1.407-1.396-2.89-2.715-4.439-3.95
	c-2.2-8.08-4.5-15.3-5.181-15.53c-0.88-0.29-2.39-2.19-3.829-3.82c0.131-1.375,0.107-2.76-0.07-4.13c-1.061-7-8-12-11.82-18.18
	c-3.82-6.18-4.51-13.75-3.53-20.83c0.98-7.08,3.45-13.93,5.46-20.84c1.5-5.13,2.75-10.58,1.07-15.67
	c-1.189-3.63-3.78-6.77-6.45-9.72c-6.409-7.09-13.8-13.73-22.92-18c-6.339-2.988-13.282-4.474-20.29-4.34h-0.069l-1.101,0.06
	l-0.779,0.05l-0.78,0.08l-0.83,0.08l0,0c-0.851,0.11-1.69,0.24-2.53,0.41c-6.091-1.354-12.311-2.052-18.55-2.08h-0.811
	c-1.851-0.109-3.692,0.325-5.3,1.25c-2.22,1.55-2.5,4.33-3.17,6.75c-1.203,4.05-3.74,7.574-7.2,10c-2.39,1.72-5.199,3-7.479,4.8
	c-2.28,1.8-4.061,4.5-3.45,7.16c0.51,2.23,2.59,3.89,5,4.9c-0.29,0.36-0.59,0.71-0.87,1.08c0.47,0.19,1,0.36,1.43,0.5
	c3,0.89,6.23,1,9.271,1.81c0.837,0.224,1.658,0.501,2.46,0.83c-2.704,5.086-4.115,10.759-4.11,16.52
	c0.023,13.031,7.166,25.007,18.62,31.22c0,0.34,0,0.67,0,1c0.311,10.44-0.479,23.14-5.819,25.29c-5.341,2.15-10.45,4.58-13.601,6.15
	l-1,0.53c-0.83-0.38-1.66-0.78-2.47-1.2c0,0-4.25-0.5-3.51,2.74c0,0-12.851-2-19.9,3.49c-7.05,5.489-18.62,16.949-20.89,19.939
	c-2.271,2.99-19.82,9.53-19.82,9.53s5.53-7.729,3.14-17.2c0,0-2.64-11.42-1.38-16c1.26-4.58,4.53-21.58,4.53-21.58
	s0.46-17.94-9.33-26.17s-16.6-15-12.82-7c1.652,3.667,3.502,7.242,5.54,10.71c0,0-23.41,5.56-15.1,14.24
	c8.31,8.68,10.57,8.69,10.57,8.69s-2.771,21.43-3.28,25.42c-0.51,3.989-5,34.39-5,34.39s-0.25,14.46,2.27,16.7
	c0,0,1.65,9.31,12.08,9c0,0,19.88-0.5,25.42-2.74s24.66-14.21,26.681-13.46c0.146,0.059,0.279,0.147,0.39,0.26
	c0.107,0.093,0.208,0.193,0.3,0.301c-2,4.43-6.74,19.47-4.72,26.859c0,0-1.76,20.93,8.81,27.66c0,0,15.351,25.92,9.561,39.87
	c-0.46,1.13-0.87,2.17-1.25,3.18c-8.79-7.29-22.2-14-42.68-17.71c-2.091-0.38-4.17-0.84-6.23-1.34c-5.82-1.41-21.83-2.7-29.45,22.61
	c-1.776,5.883-4.038,11.609-6.76,17.119c-3,6.07-6.33,14.771-6.4,23.4c-0.17,12.1,6.08,24.09,28.761,28.49
	c0.25,9,1.279,19.72,4.359,27.43c6.29,15.7,16.36,41.12,16.36,41.12s12.08,25.92,12.84,36.38c0.49,6.851,1.21,15.83,0.71,22
	c0,0.38-0.06,0.74-0.1,1.101c-1.036,1.118-2.167,2.146-3.38,3.069c-1.761,1-7.551,7.23-7.551,8.72
	c0.013,1.429,0.14,2.853,0.381,4.261c-2.74,2.39-4.24,5-4.24,7.6c0,13.521,38.37,24.48,85.7,24.48s85.689-11,85.689-24.48
	c0-12.34-32-22.54-73.58-24.22c8.67-3.46,16.37-7.09,19.561-10c0.685-0.533,1.207-1.247,1.51-2.061l-8.05-18.689
	c0,0-0.63,0.14-1.561,0.41l-0.56-0.841c-3.58-5.449-10.47-16.31-10.47-19.26c0-1.09-1.82-8.06-4.46-17.609v-30.65
	c26.26,4,60.1-1.439,60.1-1.439l0.15-0.08h0.659v-0.36c4.551-2.52,27.311-15.85,34.061-33.53c2-5.16-0.49-12.55-5.44-20.45
	c3.46-8.59,12-30.779,11.15-39.63c0-0.47-0.061-1-0.061-1.52c0.081-0.904,0.114-1.813,0.101-2.72c1-13,9-36.75,9-36.75
	S803.98,509.74,803.88,509.14z M633.88,451.38c1.82,3.2,3.771,7.29,4.54,8.95l0,0c0,0-2.66-4.9-4.49-8.95H633.88z M635.78,731.48
	l-0.19,0.069v-1c-0.108-2.607-0.045-5.22,0.19-7.819c0.027-1.401-0.267-2.791-0.86-4.061c-3.082-7.743-5.143-15.854-6.13-24.13
	c-1-8.72-1.83-18.23-1.31-20.65c0.779-3.71,1.42-31.81,0.449-45.659l15.48,3.479l18,36.7c0,0,11.58,17.92,15.17,32.06v14.16
	c-1.05,4.219-2.885,8.201-5.41,11.74c-2.39,3.27-4.72,6.58-6.88,10c-0.66,1.06-1.39,2.149-2.12,3.17c-0.24,0-12.07,0.69-14.08,2.91
	c-1.24,1.37-3.399,3.53-3.76,5.7l-0.51,0.08c-2.32-6.91-7.99-16.75-7.99-16.75H635.78z"/>
<path opacity="0.1" enable-background="new    " d="M711.93,718.63l-4,13l-17,14.75l-25,7.18c0,0-11.75-6.43-7.75-7.68
	c1.11-0.35,2.431-1.62,3.771-3.28c-1.4,5.101,9.729-1.47,9.729-1.47s28.75-20.5,31.75-22.75c1.968-1.305,4.127-2.293,6.4-2.93
	C711.08,717.4,711.93,718.63,711.93,718.63z"/>
<path fill="#FDC2CC" d="M711.93,718.63l-4,13l-17,14.75l-25,7.18c0,0-11.75-6.43-7.75-7.68c1.11-0.35,2.431-1.62,3.771-3.28
	c1.206-1.539,2.321-3.149,3.34-4.819c2.14-3.44,4.46-6.761,6.83-10c3.458-4.923,5.628-10.634,6.31-16.61c1.75-13.75-16-41.5-16-41.5
	l-32.25-66.25l45,5.5c0,0,24.25,83.25,24.25,87.25c0,3,6.841,13.85,10.4,19.32C711.08,717.4,711.93,718.63,711.93,718.63z"/>
<ellipse fill="#5F5D7E" cx="686.97" cy="771.05" rx="85.12" ry="24.55"/>
<path fill="#FA709A" d="M719.93,734.63c-0.304,0.813-0.822,1.528-1.5,2.07c-6.18,5.67-29.29,14.1-43.569,18.68
	c-3.743,1.307-7.56,2.392-11.431,3.25c-3.5,0.25-10.75-2-15.75-5.07c-5-3.069-0.5-7.43,1.521-9.68c2.02-2.25,14-2.92,14-2.92
	c-5.75,9.57,8.49,1.17,8.49,1.17s28.75-20.5,31.75-22.75s8.5-3.5,8.5-3.5L719.93,734.63z"/>
<path opacity="0.3" enable-background="new    " d="M719.93,734.63c-0.304,0.813-0.822,1.528-1.5,2.07
	c-6.18,5.67-29.29,14.1-43.569,18.68c-3.743,1.307-7.56,2.392-11.431,3.25c-3.5,0.25-10.75-2-15.75-5.07
	c-5-3.069-0.5-7.43,1.521-9.68c2.02-2.25,14-2.92,14-2.92c-5.75,9.57,8.49,1.17,8.49,1.17s28.75-20.5,31.75-22.75s8.5-3.5,8.5-3.5
	L719.93,734.63z"/>
<path opacity="0.1" enable-background="new    " d="M718.43,736.72c-6.18,5.67-29.29,14.101-43.569,18.681
	C687.8,744.44,709.5,738.71,718.43,736.72z"/>
<ellipse opacity="0.1" enable-background="new    " cx="686.97" cy="763.14" rx="17.03" ry="4.91"/>
<rect x="677.5" y="633.64" fill="#5F5D7E" width="17.5" height="129.5"/>
<path opacity="0.1" enable-background="new    " d="M695,640.06v15c-3.5-1.079-11.49-5.63-17.5-9.21v-12.22h3.65L695,640.06z"/>
<path fill="#474157" d="M653.77,577.26c0,0,57.78-14.87,72.16-26c14.381-11.13,70.851,41.24,63.391,61s-34.62,34.07-34.62,34.07
	s-75.11,12.22-87.9-13.271C654.01,607.57,653.77,577.26,653.77,577.26z"/>
<path opacity="0.1" enable-background="new    " d="M653.77,577.26c0,0,57.78-14.87,72.16-26c14.381-11.13,70.851,41.24,63.391,61
	s-34.62,34.07-34.62,34.07s-75.11,12.22-87.9-13.271C654.01,607.57,653.77,577.26,653.77,577.26z"/>
<path fill="#474157" d="M648.77,571.26c0,0,57.78-14.87,72.16-26c14.381-11.13,70.851,41.24,63.391,61s-34.62,34.07-34.62,34.07
	s-75.11,12.22-87.9-13.271C649.01,601.57,648.77,571.26,648.77,571.26z"/>
<path fill="#FDC2CC" d="M595.18,434.9l-6.25-2.271c0,0,5.5-7.75,3.13-17.25c0,0-2.63-11.46-1.38-16.1c1.25-4.64,4.5-21.65,4.5-21.65
	s0.46-18-9.27-26.25c-9.73-8.25-16.48-15-12.73-7c1.638,3.68,3.474,7.269,5.5,10.75c0,0-23.25,5.57-15,14.29
	c8.25,8.72,10.5,8.71,10.5,8.71s-2.75,21.5-3.25,25.5s-5,34.5-5,34.5s-0.25,14.5,2.25,16.75c1.149,5.603,6.3,9.466,12,9
	C581.96,463.85,603.18,440.4,595.18,434.9z"/>
<path fill="#FDC2CC" d="M746.18,388.9v14l-14.5,4.729l-24.699,18.18l-6.551,4.82l-29.25-11.75l-18.5-19.5c0,0,0.9-0.49,2.46-1.3
	l1-0.53c3.13-1.57,8.061-4,13.511-6.17c5.449-2.17,6.09-14.89,5.779-25.37v-1c-0.25-7.35-1-13.36-1-13.36s3.051-0.58,7.49-1.24
	c12.311-1.83,35.28-4.3,33.26,3.24c-0.59,2.563-0.59,5.227,0,7.79c0.061,0.28,0.12,0.57,0.19,0.85c2.08,9.09,8.52,18.61,8.52,18.61
	l20,7.2l0.561,0.2L746.18,388.9z"/>
<path fill="#FDC2CC" d="M746.18,393.15v-4.25c1.572-0.271,3.179-0.271,4.75,0c1.75,0.5,5.07,5.75,6.57,6.25s10.68,34.75,9.68,37.75
	S756.73,503.63,756.73,503.63l-19.051,21l-3.75-57.75l12.25-34.25V393.15z"/>
<path fill="#FDC2CC" d="M647.43,550.4c0,0-17.41,3.75-15.199,9.25c2.209,5.5,11.949,5.75,11.949,5.75L647.43,550.4z"/>
<path fill="#FDC2CC" d="M671.68,439.35L658.43,467.9l-15.75,11.5l-2.75-17.771c0,0-5.319-11.75-7.609-13.74
	c-0.111-0.112-0.244-0.2-0.391-0.26c-2-0.75-21,11.25-26.5,13.5s-25.25,2.75-25.25,2.75l8.75-31.25c0,0,17.5-6.5,19.75-9.5
	s13.75-14.5,20.75-20s19.771-3.5,19.771-3.5l0.2,0.08l3.279,1.42l9.5,23.25L671.68,439.35z"/>
<path fill="#FDC2CC" d="M636.93,724.15c-0.235,2.605-0.299,5.225-0.189,7.84c0.069,2.79,0.189,5.16,0.189,5.16l-5.75,12
	c0,0-19.75,6.5-16.5,3.75c1.13-0.95,1.71-3.42,2-6.69c0.49-6.18-0.22-15.19-0.71-22.06c-0.75-10.5-12.75-36.5-12.75-36.5
	s-10-25.5-16.25-41.25s-4-44.25-4-44.25s1-21.5,5.5-28s22-8.75,22-8.75l8.21,27.229c0,0,6.75,25.5,9.25,29.25s1.75,48.5,0.75,53.25
	c-0.51,2.43,0.351,12,1.311,20.72c0.979,8.295,3.023,16.428,6.08,24.2C636.667,721.333,636.961,722.735,636.93,724.15z"/>
<path opacity="0.1" enable-background="new    " d="M636.93,737.15l-5.75,12c0,0-19.75,6.5-16.5,3.75c1.13-0.95,1.71-3.42,2-6.69
	c0.71-0.71,1.471-1.49,2.25-2.29c5.026-5.21,11.114-9.279,17.851-11.93l0,0C636.81,734.78,636.93,737.15,636.93,737.15z"/>
<path fill="#FA709A" d="M645.95,755.01c0.005,0.047,0.005,0.094,0,0.141c-1,4.75-17.5,11.25-17.5,11.25s-10.5,1.75-16.5,3.25
	c-0.459,0.123-0.937,0.167-1.41,0.13c-4.63-0.351-4.84-9.261-4.84-10.63c0-1.37,5.75-7.75,7.5-8.75
	c1.979-1.642,3.837-3.423,5.56-5.33c5.133-5.314,11.346-9.465,18.221-12.17l0,0C636.98,732.9,646.75,750.08,645.95,755.01z"/>
<path opacity="0.3" enable-background="new    " d="M645.95,755.01c0.005,0.047,0.005,0.094,0,0.141c-1,4.75-17.5,11.25-17.5,11.25
	s-10.5,1.75-16.5,3.25c-0.459,0.123-0.937,0.167-1.41,0.13c-4.63-0.351-4.84-9.261-4.84-10.63c0-1.37,5.75-7.75,7.5-8.75
	c2.011-1.662,3.896-3.471,5.64-5.41c5.023-5.235,11.115-9.328,17.86-12l0.28-0.11C636.98,732.88,646.75,750.08,645.95,755.01z"/>
<path opacity="0.1" enable-background="new    " d="M645.95,755.01c0.005,0.047,0.005,0.094,0,0.141c-1,4.75-17.5,11.25-17.5,11.25
	s-10.5,1.75-16.5,3.25c-0.459,0.123-0.937,0.167-1.41,0.13c5.44-3.73,18.63-12.681,20.41-12.88
	C632.73,756.7,641.5,754.18,645.95,755.01z"/>
<path opacity="0.1" enable-background="new    " d="M715.41,362.29c-6.18,5.09-11.86,4.36-20.49,4.36c-6.24,0-14.35,2.19-19.46-0.62
	c-0.21-7.81-1-14.38-1-14.38s43.5-8.25,40.75,2C714.581,356.504,714.649,359.468,715.41,362.29z"/>
<path fill="#FDC2CC" d="M728.43,333.69c0,19.744-16.006,35.75-35.75,35.75l0,0c-0.92,0-1.84,0-2.739-0.1l0,0
	c-19.687-1.519-34.413-18.708-32.895-38.394c1.519-19.686,18.708-34.413,38.395-32.894c18.619,1.437,32.996,16.963,33,35.638H728.43
	z"/>
<path opacity="0.1" enable-background="new    " d="M662.18,424.4l9.5,15l-13.25,28.55l-15.75,11.5l-2.75-17.82
	c0,0-5.319-11.75-7.609-13.74c0.66-1.609,1.109-2.35,1.109-1.76c0,2.5,6.15,13.75,6.15,13.75c19-6.5,13.1-31.75,13.1-31.75
	s-2.359-22.5-3.279-28.42l3.279,1.42L662.18,424.4z"/>
<path opacity="0.1" enable-background="new    " d="M746.18,388.9v14l-14.5,4.729l-24.699,18.18l-6.551,4.82l-29.25-11.75
	l-18.5-19.5c0,0,0.9-0.49,2.46-1.3l1-0.53c12.87,5.851,26.801,8,36.75,8.771c4.576,0.388,9.172,0.491,13.761,0.31
	c37.67-6,38.79-15.1,37.85-18.33L746.18,388.9z"/>
<path fill="#2D71A1" d="M756.93,615.63c-9.43,4.624-19.111,8.713-29,12.25c-17.25,6.25-55.25-2-60-3.25s-41.25-15.75-55.25-21.25
	s-17.5-1-20.75-1.5s-5.5-6.75-6-8.5s9-17,14.25-24.75s21-6.25,23.25-6.75s18,0,18,0s-1-5,4.75-19s-9.5-40-9.5-40
	c-10.5-6.75-8.75-27.75-8.75-27.75c-2.5-9.25,5.5-30.5,5.5-28s6.15,13.75,6.15,13.75c19-6.5,13.1-31.75,13.1-31.75
	s-2.75-26.25-3.479-29.5c-0.73-3.25,3.479-2.75,3.479-2.75c0.813,0.42,1.634,0.82,2.46,1.2c13.16,6.2,27.561,8.46,37.78,9.24
	c4.576,0.388,9.172,0.491,13.76,0.31c45.67-7.37,37.58-19.12,37.28-19.54l2.22,0.79c16.5,12,11.5,51.75,11.5,51.75l-6.18,29.67
	l-4.59,22.101c0,0,16.25,98.5,17.75,103.5S756.93,615.63,756.93,615.63z"/>
<path opacity="0.1" enable-background="new    " d="M635.18,570.63c-1,0.75-12.25,24-4,30.5S635.18,570.63,635.18,570.63z"/>
<path opacity="0.1" enable-background="new    " d="M643.18,573.9c0.25,0.75,23.5,37.75,36.25,40.75L643.18,573.9z"/>
<path opacity="0.1" enable-background="new    " d="M699.19,281.11l-3.721,0.79c1.025-0.378,2.074-0.688,3.141-0.93L699.19,281.11z"
	/>
<path opacity="0.1" enable-background="new    " d="M755.21,440.63l-7,29.65c-3.571-1.629-6.854-3.828-9.72-6.511
	c-2.23-2.119-4.23-4.55-7.101-5.939c-3.689-1.79-8.14-1.55-12.329-1.7c-5.234-0.195-10.42-1.083-15.421-2.64
	c-1.452-0.364-2.813-1.025-4-1.94c-2.38-2.1-2.22-5.49-2-8.45c0.436-5.753,0.485-11.529,0.15-17.29
	c-0.06-1.079-0.14-2.159-0.229-3.239c-0.4-4.83-1.7-10.431-6.641-12.5c-2.54-1-5.57-0.92-8-2.13c-0.351-0.177-0.686-0.385-1-0.62
	c-3.6-2.521-3.93-7.57-3.79-11.82c0.214-5.84,0.417-11.684,0.61-17.53c0.182-2.883,0.118-5.777-0.19-8.65l0,0
	c-0.24-1.908-0.767-3.768-1.56-5.52c-2.17-4.64-6.69-8.51-7.5-13.41c-0.045-0.228-0.075-0.458-0.09-0.69
	c-0.42-4.38,2.34-8.46,3.31-12.77c1.94-8.67-4.58-18.17-14.17-20.66c-3-0.78-6.22-0.93-9.21-1.82c-0.479-0.143-0.949-0.31-1.41-0.5
	c7.24-9.66,19.65-16,33.74-16c22.33,0,40.439,16,40.439,35.75c0,11.2-5.829,21.19-14.939,27.75c0.06,0.28,0.13,0.57,0.21,0.85
	c2.35,9.09,9.64,18.61,9.64,18.61l22.641,7.2l2.52,0.8C760.87,400.9,755.21,440.63,755.21,440.63z"/>
<path opacity="0.1" enable-background="new    " d="M767.5,469.35c-0.22,0-0.43-0.05-0.64-0.09
	C767.077,469.237,767.297,469.268,767.5,469.35z"/>
<path fill="#474157" d="M690.18,280.12c-6.257-1.454-12.656-2.202-19.08-2.23c-2.09,0-4.33,0.11-6,1.26
	c-2.21,1.55-2.489,4.35-3.149,6.77c-1.194,4.041-3.713,7.563-7.15,10c-2.37,1.73-5.16,3-7.43,4.82c-2.271,1.82-4,4.52-3.431,7.18
	c0.57,2.66,3.561,4.71,6.561,5.56s6.19,1,9.21,1.82c9.59,2.49,16.1,12,14.16,20.65c-1,4.31-3.73,8.39-3.311,12.77
	c0.49,5.23,5.32,9.26,7.591,14.11c2.069,4.42,1.93,9.38,1.77,14.16l-0.609,17.54c-0.16,4.621,0.239,10.18,4.8,12.44
	c2.439,1.2,5.479,1.07,8,2.13c4.939,2.061,6.239,7.67,6.64,12.49c0.571,6.83,0.599,13.695,0.08,20.53c-0.23,3-0.39,6.35,2,8.45
	c1.184,0.919,2.546,1.58,4,1.939c5.001,1.557,10.186,2.445,15.42,2.641c4.2,0.159,8.64-0.08,12.33,1.699
	c2.87,1.391,4.87,3.83,7.1,5.94c6.395,5.851,14.545,9.419,23.181,10.15c1.85,0.159,3.95,0.12,5.239-1.07
	c1.29-1.19,0.53-3.76-1.31-3.61c3.183,0.535,6.406-0.697,8.42-3.22c1.724-2.45,1.724-5.72,0-8.17c-2.09-3-6.53-5-6.77-8.56
	c-0.131-2,1.199-3.811,2.239-5.591c5.15-9.104,3.667-20.516-3.64-28c-4.69-4.85-11.72-8.529-13.36-14.75
	c-1.09-4.16,0.561-8.53-0.069-12.76c-1-7-7.931-12-11.74-18.24c-3.811-6.24-4.48-13.79-3.51-20.89c0.97-7.1,3.43-14,5.43-20.9
	c1.49-5.15,2.72-10.62,1.06-15.73c-1.189-3.63-3.75-6.78-6.409-9.75c-6.37-7.11-13.7-13.77-22.761-18
	c-9.06-4.23-20.1-5.87-29.72-2.74"/>
<path opacity="0.1" enable-background="new    " d="M690.18,280.12c-6.257-1.454-12.656-2.202-19.08-2.23c-2.09,0-4.33,0.11-6,1.26
	c-2.21,1.55-2.489,4.35-3.149,6.77c-1.194,4.041-3.713,7.563-7.15,10c-2.37,1.73-5.16,3-7.43,4.82c-2.271,1.82-4,4.52-3.431,7.18
	c0.57,2.66,3.561,4.71,6.561,5.56s6.19,1,9.21,1.82c9.59,2.49,16.1,12,14.16,20.65c-1,4.31-3.73,8.39-3.311,12.77
	c0.49,5.23,5.32,9.26,7.591,14.11c2.069,4.42,1.93,9.38,1.77,14.16l-0.609,17.54c-0.16,4.621,0.239,10.18,4.8,12.44
	c2.439,1.2,5.479,1.07,8,2.13c4.939,2.061,6.239,7.67,6.64,12.49c0.571,6.83,0.599,13.695,0.08,20.53c-0.23,3-0.39,6.35,2,8.45
	c1.184,0.919,2.546,1.58,4,1.939c5.001,1.557,10.186,2.445,15.42,2.641c4.2,0.159,8.64-0.08,12.33,1.699
	c2.87,1.391,4.87,3.83,7.1,5.94c6.395,5.851,14.545,9.419,23.181,10.15c1.85,0.159,3.95,0.12,5.239-1.07
	c1.29-1.19,0.53-3.76-1.31-3.61c3.183,0.535,6.406-0.697,8.42-3.22c1.724-2.45,1.724-5.72,0-8.17c-2.09-3-6.53-5-6.77-8.56
	c-0.131-2,1.199-3.811,2.239-5.591c5.15-9.104,3.667-20.516-3.64-28c-4.69-4.85-11.72-8.529-13.36-14.75
	c-1.09-4.16,0.561-8.53-0.069-12.76c-1-7-7.931-12-11.74-18.24c-3.811-6.24-4.48-13.79-3.51-20.89c0.97-7.1,3.43-14,5.43-20.9
	c1.49-5.15,2.72-10.62,1.06-15.73c-1.189-3.63-3.75-6.78-6.409-9.75c-6.37-7.11-13.7-13.77-22.761-18
	c-9.06-4.23-20.1-5.87-29.72-2.74"/>
<path opacity="0.1" enable-background="new    " d="M636.68,502.9c0,0,8.5,3.25,17.5-5.75S636.68,502.9,636.68,502.9z"/>
<g opacity="0.1">
	<path d="M693.94,279.97c1.649-0.328,3.32-0.539,5-0.63c-2.336-0.143-4.679-0.069-7,0.22L693.94,279.97z"/>
	<path d="M744.08,462.79c-2.24-2.11-4.23-4.55-7.11-5.94c-3.68-1.779-8.13-1.54-12.33-1.699c-5.234-0.192-10.42-1.08-15.42-2.641
		c-1.454-0.359-2.816-1.021-4-1.939c-2.38-2.101-2.21-5.48-2-8.45c0.519-6.835,0.492-13.7-0.08-20.53
		c-0.409-4.82-1.699-10.43-6.649-12.49c-2.53-1.06-5.561-0.93-8-2.13c-4.561-2.26-5-7.819-4.811-12.44
		c0.207-5.847,0.41-11.69,0.61-17.53c0.17-4.79,0.3-9.75-1.771-14.17c-2.27-4.85-7.1-8.87-7.59-14.11
		c-0.41-4.37,2.351-8.46,3.32-12.77c1.939-8.67-4.58-18.16-14.17-20.65c-3-0.78-6.22-0.94-9.21-1.82s-5.891-2.78-6.51-5.5
		c-0.62-2.72,1.149-5.36,3.42-7.19c2.27-1.83,5.06-3.09,7.439-4.82c3.438-2.434,5.954-5.958,7.141-10c0.67-2.42,1-5.21,3.149-6.77
		c1.232-0.765,2.65-1.179,4.101-1.2c-0.891,0-1.78-0.05-2.66-0.05c-2.09,0-4.33,0.11-6,1.25c-2.21,1.56-2.49,4.35-3.15,6.77
		c-1.194,4.042-3.712,7.563-7.149,10c-2.37,1.73-5.16,3-7.431,4.82c-2.27,1.82-4,4.52-3.43,7.19s3.53,4.61,6.52,5.5
		c2.99,0.89,6.19,1,9.21,1.82c9.591,2.49,16.101,12,14.16,20.65c-1,4.31-3.729,8.4-3.31,12.77c0.49,5.24,5.319,9.26,7.59,14.11
		c2.07,4.42,1.94,9.38,1.771,14.17c-0.207,5.84-0.41,11.683-0.61,17.53c-0.16,4.621,0.24,10.18,4.8,12.44c2.44,1.2,5.48,1.07,8,2.13
		c4.94,2.061,6.24,7.67,6.64,12.49c0.572,6.83,0.599,13.695,0.08,20.53c-0.229,3-0.39,6.35,2,8.45c1.184,0.919,2.546,1.58,4,1.939
		c5,1.562,10.186,2.449,15.42,2.641c4.2,0.159,8.641-0.08,12.33,1.699c2.87,1.391,4.87,3.83,7.11,5.94
		c6.389,5.852,14.537,9.422,23.17,10.15c1.116,0.133,2.247,0.089,3.35-0.131C757.834,471.865,750.155,468.358,744.08,462.79z"/>
</g>
<path opacity="0.1" enable-background="new    " d="M588.93,432.63c0,0-8,7.34-6.83,10.34S588.93,432.63,588.93,432.63z"/>
<path fill="#474157" d="M596.35,526.98c-5.77-1.41-21.68-2.711-29.25,22.68c-1.762,5.897-4.006,11.64-6.71,17.17
	c-7.26,14.91-16.64,45.57,24.61,52.32l99,22.5c0,0,53,6.5,56.5,4s3-8,3-8s-58.5,0-70-18s-12-42.5-12-42.5s1.439-37.83-59-48.82
	C600.5,527.95,598.4,527.48,596.35,526.98z"/>
<path opacity="0.1" enable-background="new    " d="M596.35,527.15c-5.77-1.41-21.68-2.71-29.25,22.689
	c-1.762,5.897-4.006,11.641-6.71,17.17c-7.26,14.9-16.64,45.561,24.61,52.311l99,22.5c0,0,53,6.5,56.5,4s3-8,3-8s-58.5,0-70-18
	s-12-42.5-12-42.5s1.439-37.83-59-48.82C600.5,528.12,598.4,527.63,596.35,527.15z"/>
<path fill="#474157" d="M803.88,501.11c-1.186-7.569-7.79-13.093-15.45-12.92c-14.239,0.26-58.069,2.159-78.43,15.46
	c0,0-15.5,10-20,10s-65.5,52,25,98.5c0,0,48.5,13.8,67.5-18.601c0,0,13.5-34.8,12.5-46.85s9-44.55,9-44.55
	S803.98,501.76,803.88,501.11z"/>
<path opacity="0.1" enable-background="new    " d="M803.88,509.87c-1.14-7-7.8-12.061-15.45-11.93
	c-14.239,0.239-58.069,2-78.43,14.27c0,0-15.5,9.23-20,9.23s-65.5,48,25,90.93c0,0,48.5,12.74,67.5-17.17c0,0,13.5-32.13,12.5-43.25
	s9-41.12,9-41.12S803.98,510.47,803.88,509.87z"/>
<rect x="739.5" y="612.14" fill="#5F5D7E" width="16" height="34.07"/>
<ellipse opacity="0.1" enable-background="new    " cx="170.24" cy="470.71" rx="45.04" ry="2.89"/>
<path fill="#FA709A" d="M208.04,359.25c-0.959,1.315-1.727,2.759-2.28,4.29c-0.14,0.38-0.28,0.8-0.42,1.21
	c-0.252-0.12-0.517-0.21-0.79-0.27c-1.166-0.292-2.371-0.396-3.57-0.31c0-0.46,0.06-1,0.07-1.46c0.15-5.27-0.47-12.62-5.5-9.51
	c-4.82,3-1.38,8,1.73,11.21l0.8,0.78c-2.84,2-3.38,6.73-3.85,11.64s-4.64,10.29-7.41,13.34c-0.28,0.31-0.53,0.59-0.78,0.85
	c-2.263-1.812-5.194-2.566-8.05-2.07c-0.11-0.43-0.24-0.88-0.37-1.36c-2.24-8.08-6.89-22.09-12.82-25.16l0.78-1
	c2.52-3.3,5.36-8.19,1.17-9.45c-4.19-1.26-4.57,4.25-4.34,8.37c0,0.52,0.08,1,0.12,1.46c-1.692,0.082-3.275,0.855-4.38,2.14
	l-0.65-0.76c-3.4-4-9.63-10.37-11.52-5.56c-1.76,4.48,3.73,10.29,7.59,13.66l0.24,0.21c-2.59,10.53,8.69,19.13,14.81,22.85
	l0.79,0.48c-8.4,9.9-13.59,28.45-13.59,28.45l23.52,4.2c0,0,15.6-13.45,13.6-26.091h0.16c15.59-3.119,19.13-19.74,16.7-29.609
	l0.28-0.11c2.838-1.165,5.326-3.046,7.22-5.46C221.66,360.14,212.5,353.3,208.04,359.25z"/>
<path opacity="0.1" enable-background="new    " d="M208.04,359.25c-0.959,1.315-1.727,2.759-2.28,4.29
	c-0.14,0.38-0.28,0.8-0.42,1.21c-0.252-0.12-0.517-0.21-0.79-0.27c-1.166-0.292-2.371-0.396-3.57-0.31c0-0.46,0.06-1,0.07-1.46
	c0.15-5.27-0.47-12.62-5.5-9.51c-4.82,3-1.38,8,1.73,11.21l0.8,0.78c-2.84,2-3.38,6.73-3.85,11.64s-4.64,10.29-7.41,13.34
	c-0.28,0.31-0.53,0.59-0.78,0.85c-2.263-1.812-5.194-2.566-8.05-2.07c-0.11-0.43-0.24-0.88-0.37-1.36
	c-2.24-8.08-6.89-22.09-12.82-25.16l0.78-1c2.52-3.3,5.36-8.19,1.17-9.45c-4.19-1.26-4.57,4.25-4.34,8.37c0,0.52,0.08,1,0.12,1.46
	c-1.692,0.082-3.275,0.855-4.38,2.14l-0.65-0.76c-3.4-4-9.63-10.37-11.52-5.56c-1.76,4.48,3.73,10.29,7.59,13.66l0.24,0.21
	c-2.59,10.53,8.69,19.13,14.81,22.85l0.79,0.48c-8.4,9.9-13.59,28.45-13.59,28.45l23.52,4.2c0,0,15.6-13.45,13.6-26.091h0.16
	c15.59-3.119,19.13-19.74,16.7-29.609l0.28-0.11c2.838-1.165,5.326-3.046,7.22-5.46C221.66,360.14,212.5,353.3,208.04,359.25z"/>
<path fill="#2D71A1" d="M161.22,366.03l-2.72,8.05c0,0-1.53-1.08-3.46-2.78c-3.86-3.37-9.35-9.18-7.59-13.66
	c1.89-4.81,8.12,1.54,11.52,5.56C160.31,364.79,161.22,366.03,161.22,366.03z"/>
<path fill="#FA709A" d="M167.02,361.44c-0.837,1.097-1.731,2.148-2.68,3.15c-0.234-1.401-0.398-2.813-0.49-4.23
	c-0.23-4.12,0.21-9.59,4.34-8.37C172.32,353.21,169.5,358.14,167.02,361.44z"/>
<path fill="#2D71A1" d="M202.5,362.71c-0.08,2.65-0.34,4.76-0.34,4.76c-1.211-0.942-2.357-1.964-3.43-3.06
	c-3.11-3.23-6.55-8.21-1.73-11.21C202.02,350.09,202.64,357.44,202.5,362.71z"/>
<path fill="#2D71A1" d="M218.74,366.18c-1.901,2.413-4.396,4.291-7.24,5.45c-0.787,0.341-1.596,0.632-2.42,0.87l-3.24-4.55
	c0.343-1.503,0.791-2.98,1.34-4.42c0.553-1.531,1.32-2.975,2.28-4.29C213.96,353.3,223.1,360.14,218.74,366.18z"/>
<path opacity="0.1" enable-background="new    " d="M158.94,363.2c1.37,1.59,2.28,2.83,2.28,2.83l-2.72,8.05
	c0,0-1.53-1.08-3.46-2.78c0.431-2.577,1.496-5.007,3.1-7.07C158.38,363.86,158.67,363.51,158.94,363.2z"/>
<path opacity="0.1" fill="#2D71A1" enable-background="new    " d="M167.02,361.44c-0.837,1.097-1.731,2.148-2.68,3.15
	c-0.234-1.401-0.398-2.813-0.49-4.23C164.994,360.379,166.103,360.757,167.02,361.44z"/>
<path fill="#2D71A1" d="M180.5,393.4l-6.84,3c0,0-1.49-0.72-3.64-2.061c-7.19-4.43-21.64-15.56-11.95-28.68
	c9.69-13.12,17.77,10.42,20.95,21.92C180.03,391.03,180.5,393.4,180.5,393.4z"/>
<path opacity="0.1" enable-background="new    " d="M198.72,364.41c0.992-1.03,2.341-1.638,3.77-1.7c-0.08,2.65-0.34,4.76-0.34,4.76
	C200.939,366.528,199.793,365.506,198.72,364.41z"/>
<path opacity="0.1" enable-background="new    " d="M211.5,371.63c-0.787,0.341-1.596,0.632-2.42,0.87l-3.24-4.55
	c0.343-1.503,0.791-2.98,1.34-4.42C209.29,364.77,210.83,367.8,211.5,371.63z"/>
<path fill="#2D71A1" d="M194.5,401.36l-1.15,0.199c-22.93,3.49-7.56-8.879-7.56-8.879s1-0.95,2.43-2.51
	c2.77-3.05,6.93-8.4,7.41-13.34c0.72-7.43,1.55-14.4,10.32-12.35C214.6,366.49,216.25,397.01,194.5,401.36z"/>
<rect x="150.3" y="458.44" fill="#474157" width="43.81" height="11.52"/>
<rect x="143.34" y="421" fill="#474157" width="57.24" height="40.2"/>
<rect x="149.88" y="458.44" opacity="0.1" enable-background="new    " width="43.81" height="11.52"/>
<rect x="143.16" y="421.01" opacity="0.1" enable-background="new    " width="57.24" height="40.2"/>
<rect x="153.18" y="458.44" fill="#474157" width="43.81" height="11.52"/>
<path opacity="0.1" enable-background="new    " d="M179.06,387.63c1,3.44,1.48,5.81,1.48,5.81l-6.84,3c0,0-1.49-0.72-3.64-2.061
	C172.74,390.95,175.76,388.38,179.06,387.63z"/>
<path opacity="0.1" enable-background="new    " d="M194.5,401.36l-1.15,0.199c-22.93,3.49-7.56-8.879-7.56-8.879s1-0.95,2.43-2.51
	C192.5,393.63,194.31,397.46,194.5,401.36z"/>
<path fill="#2D71A1" d="M157.26,423.28c0,0,12.84-46,30.85-31.8c18.01,14.2-7.33,36-7.33,36L157.26,423.28z"/>
<circle opacity="0.1" enable-background="new    " cx="163.74" cy="372.87" r="1.44"/>
<circle opacity="0.1" enable-background="new    " cx="163.62" cy="379.6" r="1.44"/>
<circle opacity="0.1" enable-background="new    " cx="205.39" cy="374.19" r="1.44"/>
<circle opacity="0.1" enable-background="new    " cx="171.78" cy="408.64" r="1.44"/>
<circle opacity="0.1" enable-background="new    " cx="202.39" cy="385.36" r="1.44"/>
<circle opacity="0.1" enable-background="new    " cx="187.51" cy="400.24" r="1.44"/>
<circle opacity="0.1" enable-background="new    " cx="168.66" cy="375.75" r="1.44"/>
<circle opacity="0.1" enable-background="new    " cx="201.43" cy="378.52" r="1.44"/>
<circle opacity="0.1" enable-background="new    " cx="196.51" cy="389.68" r="1.44"/>
<circle opacity="0.1" enable-background="new    " cx="181.38" cy="407.56" r="1.44"/>
<circle opacity="0.1" enable-background="new    " cx="178.26" cy="400.48" r="1.44"/>
<circle opacity="0.1" enable-background="new    " cx="170.82" cy="384.52" r="1.44"/>
<rect x="153.18" y="458.44" opacity="0.1" enable-background="new    " width="43.81" height="4.21"/>
<rect x="146.22" y="421" fill="#474157" width="57.24" height="40.2"/>
<circle opacity="0.1" enable-background="new    " cx="183.3" cy="414.04" r="1.44"/>
<circle opacity="0.1" enable-background="new    " cx="174.66" cy="415.84" r="1.44"/>
<path fill="#2D71A1" d="M311.89,574.63c0,0,7.13,9.33-3.29,23.41c-10.419,14.08-19,26-15.56,34.76c0,0,15.74-26.16,28.55-26.52
	C334.4,605.92,325.98,590.37,311.89,574.63z"/>
<path opacity="0.1" enable-background="new    " d="M311.89,574.63c0.624,0.899,1.115,1.882,1.46,2.92
	c12.49,14.681,19.15,28.38,7.141,28.73c-11.19,0.35-24.61,20.35-27.83,25.35c0.11,0.39,0.24,0.78,0.38,1.15
	c0,0,15.74-26.16,28.55-26.521C334.4,605.9,325.98,590.37,311.89,574.63z"/>
<path fill="#FFD037" d="M325.15,586.53c0,3.28-0.37,5.939-0.82,5.939s-0.82-2.659-0.82-5.939s0.46-1.74,0.91-1.74
	S325.15,583.24,325.15,586.53z"/>
<path fill="#FFD037" d="M329.7,590.45c-2.88,1.569-5.391,2.52-5.61,2.12c-0.22-0.4,1.94-2,4.83-3.57s1.74-0.43,2,0
	S332.59,588.88,329.7,590.45z"/>
<path fill="#2D71A1" d="M274.2,574.63c0,0-7.13,9.33,3.29,23.41c10.42,14.08,19,26,15.55,34.76c0,0-15.73-26.16-28.54-26.52
	C251.69,605.92,260.11,590.37,274.2,574.63z"/>
<path opacity="0.1" enable-background="new    " d="M274.2,574.63c-0.624,0.899-1.115,1.882-1.46,2.92
	c-12.49,14.681-19.15,28.38-7.14,28.73c11.19,0.35,24.61,20.35,27.83,25.35c-0.109,0.391-0.239,0.774-0.39,1.15
	c0,0-15.73-26.15-28.54-26.49S260.11,590.37,274.2,574.63z"/>
<path fill="#FFD037" d="M260.94,586.53c0,3.28,0.37,5.939,0.82,5.939c0.45,0,0.82-2.659,0.82-5.939s-0.46-1.74-0.91-1.74
	C261.22,584.79,260.94,583.24,260.94,586.53z"/>
<path fill="#FFD037" d="M256.39,590.45c2.88,1.569,5.39,2.52,5.61,2.12c0.22-0.4-1.94-2-4.83-3.57c-2.89-1.57-1.74-0.43-2,0
	C254.91,589.43,253.5,588.88,256.39,590.45z"/>
<ellipse opacity="0.1" fill="#FA709A" enable-background="new    " cx="293.04" cy="692.74" rx="74.6" ry="11.45"/>
<path fill="#65617D" d="M331.44,620.24l-0.36,2.91l-0.5,4.119l-0.2,1.711l-0.51,4.119l-0.21,1.721l-0.5,4.109l-5.66,46.801
	c-0.51,4.18-7.34,7.43-15.57,7.43h-29.72c-8.24,0-15-3.25-15.56-7.43l-5.72-46.801l-0.5-4.109l-0.21-1.721l-0.51-4.119l-0.2-1.711
	l-0.5-4.119l-0.36-2.91c-0.29-2.36,3.4-4.36,8.07-4.36h60.66C328.03,615.88,331.73,617.88,331.44,620.24z"/>
<polygon fill="#9D9CB5" points="331.08,623.15 330.58,627.26 255.51,627.26 255.01,623.15 "/>
<polygon fill="#9D9CB5" points="330.38,628.98 329.88,633.1 256.22,633.1 255.71,628.98 "/>
<polygon fill="#9D9CB5" points="329.66,634.81 329.16,638.93 256.93,638.93 256.43,634.81 "/>
</svg>
